<svg xmlns="http://www.w3.org/2000/svg" width="20" height="17" viewBox="0 0 20 17" fill="none">
<path id="Vector" d="M0 1.41667C0 0.633073 0.638393 0 1.42857 0H18.5714C19.3616 0 20 0.633073 20 1.41667C20 2.20026 19.3616 2.83333 18.5714 2.83333H1.42857C0.638393 2.83333 0 2.20026 0 1.41667ZM0 8.5C0 7.71641 0.638393 7.08333 1.42857 7.08333H12.8571C13.6473 7.08333 14.2857 7.71641 14.2857 8.5C14.2857 9.28359 13.6473 9.91667 12.8571 9.91667H1.42857C0.638393 9.91667 0 9.28359 0 8.5ZM8.57143 15.5833C8.57143 16.3669 7.93304 17 7.14286 17H1.42857C0.638393 17 0 16.3669 0 15.5833C0 14.7997 0.638393 14.1667 1.42857 14.1667H7.14286C7.93304 14.1667 8.57143 14.7997 8.57143 15.5833Z" fill="#847798"/>
</svg>