<svg xmlns="http://www.w3.org/2000/svg" width="20" height="20" viewBox="0 0 20 20" fill="none">
<path id="Vector" d="M1.83218 0.311367C1.41263 -0.103789 0.734211 -0.103789 0.314662 0.311367C-0.104887 0.726522 -0.100424 1.40952 0.314662 1.82914L8.48248 9.99833L0.314662 18.1675C-0.104887 18.5871 -0.104887 19.2657 0.314662 19.6808C0.734211 20.096 1.41263 20.1004 1.82772 19.6808L9.99554 11.5116L18.1678 19.6853C18.5874 20.1049 19.2658 20.1049 19.6809 19.6853C20.096 19.2657 20.1004 18.5871 19.6809 18.172L11.5131 10.0028L19.6853 1.82914C20.1049 1.40952 20.1049 0.730986 19.6853 0.315831C19.2658 -0.0993249 18.5874 -0.103789 18.1723 0.315831L10.0045 8.48502L1.83218 0.311367Z" fill="#847798"/>
</svg>