<svg xmlns="http://www.w3.org/2000/svg" width="22" height="22" viewBox="0 0 22 22" fill="none">
<path d="M12.7102 5.16753C12.7531 5.32027 12.8992 5.43057 13.0625 5.43057C13.2258 5.43057 13.3676 5.32451 13.4148 5.16753L13.8875 3.52987L15.5461 3.06318C15.7008 3.02076 15.8125 2.87651 15.8125 2.71529C15.8125 2.55407 15.7051 2.41406 15.5461 2.36739L13.8875 1.9007L13.4148 0.263043C13.3719 0.110309 13.2258 0 13.0625 0C12.8992 0 12.7574 0.106066 12.7102 0.263043L12.2375 1.9007L10.5789 2.36739C10.4242 2.40982 10.3125 2.55407 10.3125 2.71529C10.3125 2.87651 10.4199 3.01651 10.5789 3.06318L12.2375 3.52987L12.7102 5.16753ZM17.3508 12.5073C17.4195 12.7406 17.6344 12.8976 17.875 12.8976C18.1156 12.8976 18.3348 12.7364 18.3992 12.5073L19.1125 10.0466L21.6047 9.34229C21.841 9.2744 22 9.06227 22 8.82468C22 8.5871 21.8367 8.37072 21.6047 8.30708L19.1125 7.6028L18.3992 5.14208C18.3305 4.90873 18.1156 4.75175 17.875 4.75175C17.6344 4.75175 17.4152 4.91297 17.3508 5.14208L16.6375 7.6028L14.1453 8.30708C13.909 8.37497 13.75 8.5871 13.75 8.82468C13.75 9.06227 13.9133 9.27865 14.1453 9.34229L16.6375 10.0466L17.3508 12.5073ZM2.0625 12.8976C2.0625 9.92777 4.21094 7.45431 7.05547 6.90277C6.08437 8.07374 5.5 9.56715 5.5 11.2006C5.5 14.7304 8.22852 17.6324 11.7176 17.9591C10.7293 18.6209 9.53477 19.007 8.25 19.007C4.83398 19.007 2.0625 16.2705 2.0625 12.8976ZM8.25 4.75175C3.69531 4.75175 0 8.40042 0 12.8976C0 17.3948 3.69531 21.0435 8.25 21.0435C11.232 21.0435 13.8445 19.4779 15.2926 17.1403C15.5203 16.7711 15.4902 16.296 15.2066 15.9608C14.923 15.6256 14.4633 15.5026 14.0508 15.6553C13.5309 15.8462 12.9637 15.9523 12.3707 15.9523C9.71094 15.9523 7.5582 13.8268 7.5582 11.2006C7.5582 9.29137 8.70117 7.64099 10.3512 6.8858C10.7508 6.70337 10.9871 6.29183 10.9441 5.85908C10.9012 5.42633 10.5832 5.06995 10.1578 4.97237C9.54336 4.82812 8.90312 4.75175 8.25 4.75175Z" fill="#847798"/>
</svg>