<svg xmlns="http://www.w3.org/2000/svg" width="22" height="22" viewBox="0 0 22 22" fill="none">
<path d="M12.0312 1.03125V3.78125C12.0312 4.35273 11.5715 4.8125 11 4.8125C10.4285 4.8125 9.96875 4.35273 9.96875 3.78125V1.03125C9.96875 0.459766 10.4285 0 11 0C11.5715 0 12.0312 0.459766 12.0312 1.03125ZM18.7773 4.6793L16.8309 6.62578C16.427 7.02969 15.7738 7.02969 15.3742 6.62578C14.9746 6.22187 14.9703 5.56875 15.3742 5.16914L17.3207 3.22266C17.7246 2.81875 18.3777 2.81875 18.7773 3.22266C19.177 3.62656 19.1812 4.27969 18.7773 4.6793ZM4.6793 3.22266L6.62578 5.16914C7.02969 5.57305 7.02969 6.22617 6.62578 6.62578C6.22187 7.02539 5.56875 7.02969 5.16914 6.62578L3.22266 4.6793C2.81875 4.27539 2.81875 3.62227 3.22266 3.22266C3.62656 2.82305 4.27969 2.81875 4.6793 3.22266ZM1.03125 9.96875H3.78125C4.35273 9.96875 4.8125 10.4285 4.8125 11C4.8125 11.5715 4.35273 12.0312 3.78125 12.0312H1.03125C0.459766 12.0312 0 11.5715 0 11C0 10.4285 0.459766 9.96875 1.03125 9.96875ZM18.2188 9.96875H20.9688C21.5402 9.96875 22 10.4285 22 11C22 11.5715 21.5402 12.0312 20.9688 12.0312H18.2188C17.6473 12.0312 17.1875 11.5715 17.1875 11C17.1875 10.4285 17.6473 9.96875 18.2188 9.96875ZM6.62578 16.8352L4.6793 18.7773C4.27539 19.1812 3.62227 19.1812 3.22266 18.7773C2.82305 18.3734 2.81875 17.7203 3.22266 17.3207L5.16914 15.3742C5.57305 14.9703 6.22617 14.9703 6.62578 15.3742C7.02539 15.7781 7.02969 16.4313 6.62578 16.8309V16.8352ZM16.8352 15.3785L18.7773 17.3207C19.1812 17.7246 19.1812 18.3777 18.7773 18.7773C18.3734 19.177 17.7203 19.1812 17.3207 18.7773L15.3742 16.8309C14.9703 16.427 14.9703 15.7738 15.3742 15.3742C15.7781 14.9746 16.4313 14.9703 16.8309 15.3742L16.8352 15.3785ZM12.0312 18.2188V20.9688C12.0312 21.5402 11.5715 22 11 22C10.4285 22 9.96875 21.5402 9.96875 20.9688V18.2188C9.96875 17.6473 10.4285 17.1875 11 17.1875C11.5715 17.1875 12.0312 17.6473 12.0312 18.2188ZM13.75 11C13.75 10.2707 13.4603 9.57118 12.9445 9.05546C12.4288 8.53973 11.7293 8.25 11 8.25C10.2707 8.25 9.57118 8.53973 9.05546 9.05546C8.53973 9.57118 8.25 10.2707 8.25 11C8.25 11.7293 8.53973 12.4288 9.05546 12.9445C9.57118 13.4603 10.2707 13.75 11 13.75C11.7293 13.75 12.4288 13.4603 12.9445 12.9445C13.4603 12.4288 13.75 11.7293 13.75 11ZM6.1875 11C6.1875 9.72365 6.69453 8.49957 7.59705 7.59705C8.49957 6.69453 9.72365 6.1875 11 6.1875C12.2764 6.1875 13.5004 6.69453 14.403 7.59705C15.3055 8.49957 15.8125 9.72365 15.8125 11C15.8125 12.2764 15.3055 13.5004 14.403 14.403C13.5004 15.3055 12.2764 15.8125 11 15.8125C9.72365 15.8125 8.49957 15.3055 7.59705 14.403C6.69453 13.5004 6.1875 12.2764 6.1875 11Z" fill="#847798"/>
</svg>