<svg width="546" height="445" viewBox="0 0 546 445" fill="none" xmlns="http://www.w3.org/2000/svg">
<path d="M534.591 69.6274C528.311 42.2205 509.81 20.6357 486.319 13.3106C443.739 0 273 0 273 0C273 0 102.262 0 59.6814 13.3106C36.1901 20.6369 17.6887 42.2205 11.4092 69.6274C0 119.304 0 222.95 0 222.95C0 222.95 0 326.595 11.4092 376.272C17.6887 403.679 36.1901 424.364 59.6814 431.689C102.262 445 273 445 273 445C273 445 443.738 445 486.319 431.689C509.81 424.364 528.311 403.679 534.591 376.272C546 326.595 546 222.95 546 222.95C546 222.95 546 119.304 534.591 69.6274ZM217.159 317.052V128.847L359.863 222.952L217.159 317.052Z" fill="#847798"/>
</svg>
